<svg width="115" height="121" viewBox="0 0 115 121" fill="none" xmlns="http://www.w3.org/2000/svg">
<path d="M23.9583 90.75V109.737L31.2176 105.154L54.0355 90.75H76.6666C81.9518 90.75 86.2499 86.2276 86.2499 80.6667V40.3333C86.2499 34.7724 81.9518 30.25 76.6666 30.25H19.1666C13.8814 30.25 9.58325 34.7724 9.58325 40.3333V80.6667C9.58325 86.2276 13.8814 90.75 19.1666 90.75H23.9583ZM19.1666 40.3333H76.6666V80.6667H51.381L33.5416 91.9297V80.6667H19.1666V40.3333Z" fill="#719B30"/>
<path d="M95.8333 10.0833H38.3333C33.0481 10.0833 28.75 14.6057 28.75 20.1667H86.25C91.5352 20.1667 95.8333 24.689 95.8333 30.25V70.5833C101.119 70.5833 105.417 66.061 105.417 60.5V20.1667C105.417 14.6057 101.119 10.0833 95.8333 10.0833Z" fill="#719B30"/>
</svg>
