<svg width="43" height="32" viewBox="0 0 43 32" fill="none" xmlns="http://www.w3.org/2000/svg">
<path d="M36.12 9.12C30.96 3.2 20.425 1.44 12.255 5.12C4.30001 8.8 1.72001 16.8 6.88001 22.72L7.31001 23.2L5.59001 28L12.04 26.72L12.685 27.04C15.48 28.16 18.49 28.8 21.5 28.8C24.725 28.8 27.95 28.16 30.745 26.88C38.7 23.04 41.065 15.2 36.12 9.12ZM31.605 21.44C30.745 22.4 29.67 23.04 28.165 23.2C27.305 23.2 26.23 23.52 21.93 22.24C18.275 20.96 15.265 18.88 13.115 16.48C11.825 15.36 11.18 13.92 10.965 12.48C10.965 11.2 11.61 10.08 12.685 9.28C13.115 8.96 13.545 8.8 13.975 8.8H15.05C15.48 8.8 15.91 8.8 16.125 9.44C16.555 10.24 17.63 12.16 17.63 12.32C17.845 12.48 17.845 12.8 17.63 12.96C17.845 13.28 17.63 13.6 17.415 13.76C17.2 13.92 16.985 14.24 16.77 14.4C16.34 14.56 16.125 14.88 16.34 15.2C17.2 16.16 18.275 17.12 19.35 17.92C20.64 18.72 21.93 19.36 23.435 19.84C23.865 20 24.295 20 24.51 19.68C24.725 19.36 25.8 18.56 26.23 18.24C26.66 17.92 26.875 17.92 27.305 18.08L30.745 19.36C31.175 19.52 31.605 19.68 31.82 19.84C32.035 20.32 32.035 20.96 31.605 21.44Z" fill="#719B30"/>
</svg>
