<svg width="40" height="40" viewBox="0 0 40 40" fill="none" xmlns="http://www.w3.org/2000/svg">
<path d="M25.75 27.5333L20.7333 22.5167C20.55 22.3333 20.3333 22.3 20.2167 22.3C20.1 22.3 19.8833 22.3333 19.7 22.5167L14.6667 27.55C14.1 28.1167 13.2167 29.0333 10.2667 29.0333L16.45 35.2C17.3875 36.1363 18.6583 36.6623 19.9833 36.6623C21.3083 36.6623 22.5792 36.1363 23.5167 35.2L29.7167 29.0167C28.2 29.0167 26.9333 28.7167 25.75 27.5333ZM14.6667 12.45L19.7 17.4833C19.8333 17.6167 20.0333 17.7 20.2167 17.7C20.4 17.7 20.6 17.6167 20.7333 17.4833L25.7167 12.5C26.9 11.2667 28.25 10.9833 29.7667 10.9833L23.5667 4.80001C22.6292 3.86367 21.3583 3.33774 20.0333 3.33774C18.7083 3.33774 17.4375 3.86367 16.5 4.80001L10.3167 10.9667C13.25 10.9667 14.15 11.9333 14.6667 12.45Z" fill="#719B30"/>
<path d="M35.1833 16.4167L31.4333 12.65H29.3333C28.4333 12.65 27.5333 13.0167 26.9166 13.6667L21.9166 18.6667C21.45 19.1333 20.8333 19.3667 20.2166 19.3667C19.5816 19.3577 18.9738 19.1075 18.5166 18.6667L13.4833 13.6167C12.85 12.9833 11.9833 12.6167 11.0666 12.6167H8.61664L4.79997 16.45C3.86364 17.3875 3.33771 18.6583 3.33771 19.9833C3.33771 21.3083 3.86364 22.5792 4.79997 23.5167L8.61664 27.35H11.0833C11.9833 27.35 12.85 26.9833 13.5 26.35L18.5333 21.3167C19 20.85 19.6166 20.6167 20.2333 20.6167C20.85 20.6167 21.4666 20.85 21.9333 21.3167L26.95 26.3333C27.5833 26.9667 28.45 27.3333 29.3666 27.3333H31.4666L35.2166 23.5667C36.1569 22.6123 36.6812 21.3245 36.675 19.9848C36.6687 18.645 36.1324 17.3622 35.1833 16.4167Z" fill="#719B30"/>
</svg>
