<svg width="93" height="85" viewBox="0 0 93 85" fill="none" xmlns="http://www.w3.org/2000/svg">
<path fill-rule="evenodd" clip-rule="evenodd" d="M22.444 7.08334H3.875V14.1667H16.3447L27.0785 59.0679H27.125V60.2083H77.5V59.33L85.9979 25.114L87.3076 21.25H25.7881L23.5794 12.0027L22.444 7.08334ZM77.4496 28.3333H27.4815L33.4064 53.125H71.2922L77.4496 28.3333Z" fill="#719B30"/>
<path d="M38.75 77.9167C40.8054 77.9167 42.7767 77.1704 44.2301 75.842C45.6835 74.5136 46.5 72.7119 46.5 70.8333C46.5 68.9547 45.6835 67.153 44.2301 65.8247C42.7767 64.4963 40.8054 63.75 38.75 63.75C36.6946 63.75 34.7233 64.4963 33.2699 65.8247C31.8165 67.153 31 68.9547 31 70.8333C31 72.7119 31.8165 74.5136 33.2699 75.842C34.7233 77.1704 36.6946 77.9167 38.75 77.9167ZM73.625 70.8333C73.625 72.7119 72.8085 74.5136 71.3551 75.842C69.9017 77.1704 67.9304 77.9167 65.875 77.9167C63.8196 77.9167 61.8483 77.1704 60.3949 75.842C58.9415 74.5136 58.125 72.7119 58.125 70.8333C58.125 68.9547 58.9415 67.153 60.3949 65.8247C61.8483 64.4963 63.8196 63.75 65.875 63.75C67.9304 63.75 69.9017 64.4963 71.3551 65.8247C72.8085 67.153 73.625 68.9547 73.625 70.8333Z" fill="#719B30"/>
</svg>
