<svg width="28" height="26" viewBox="0 0 28 26" fill="none" xmlns="http://www.w3.org/2000/svg">
<path d="M24.8889 0H3.11111C1.4 0 0 1.3 0 2.88889V23.1111C0 24.7014 1.4 26 3.11111 26H24.8889C26.6 26 28 24.7014 28 23.1111V2.88889C28 1.3 26.6 0 24.8889 0ZM13.9751 20.9777C16.26 20.9773 18.4512 20.1342 20.0667 18.6338C21.6822 17.1334 22.5898 15.0986 22.5898 12.9769C22.5898 12.4887 22.5229 12.0178 22.4296 11.5556H24.8889V21.9787C24.8889 22.1099 24.861 22.2399 24.8067 22.3611C24.7525 22.4823 24.673 22.5923 24.5729 22.685C24.4727 22.7776 24.3538 22.8509 24.2231 22.9007C24.0923 22.9505 23.9522 22.9759 23.8109 22.9753H4.18911C4.04777 22.9759 3.90769 22.9505 3.77693 22.9007C3.64617 22.8509 3.52729 22.7776 3.42713 22.685C3.32697 22.5923 3.24749 22.4823 3.19326 22.3611C3.13903 22.2399 3.11111 22.1099 3.11111 21.9787V11.5556H5.52067C5.42578 12.0178 5.35889 12.4887 5.35889 12.9769C5.3593 15.0987 6.26721 17.1335 7.88298 18.6339C9.49874 20.1342 11.6901 20.9773 13.9751 20.9777ZM8.59133 12.9769C8.59133 12.3204 8.73059 11.6703 9.00115 11.0638C9.27171 10.4572 9.66828 9.90613 10.1682 9.44191C10.6681 8.97768 11.2616 8.60944 11.9148 8.35821C12.568 8.10697 13.2681 7.97767 13.9751 7.97767C14.6821 7.97767 15.3822 8.10697 16.0354 8.35821C16.6886 8.60944 17.2821 8.97768 17.782 9.44191C18.2819 9.90613 18.6785 10.4572 18.9491 11.0638C19.2196 11.6703 19.3589 12.3204 19.3589 12.9769C19.3589 14.3028 18.7917 15.5743 17.782 16.5119C16.7724 17.4494 15.403 17.9761 13.9751 17.9761C12.5472 17.9761 11.1779 17.4494 10.1682 16.5119C9.15855 15.5743 8.59133 14.3028 8.59133 12.9769ZM23.8109 7.22222H21.2987C21.0134 7.22146 20.7401 7.1159 20.5384 6.92862C20.3367 6.74133 20.223 6.48753 20.2222 6.22267V3.887C20.2222 3.33522 20.7044 2.88889 21.2971 2.88889H23.8093C24.4067 2.88889 24.8889 3.33522 24.8889 3.887V6.22122C24.8889 6.77156 24.4067 7.22222 23.8109 7.22222Z" fill="#719B30"/>
</svg>
