<svg width="40" height="40" viewBox="0 0 40 40" fill="none" xmlns="http://www.w3.org/2000/svg">
<path d="M24.28 8.36001C26.0623 10.1444 27.1777 12.4867 27.4399 14.9951C27.702 17.5034 27.0948 20.0257 25.72 22.14C25.96 22.34 26.16 22.56 26.44 22.76C26.84 23.08 27.38 23.48 28.06 23.94C28.74 24.42 29.18 24.72 29.38 24.88C30.22 25.5 30.84 26.02 31.26 26.44C31.9 27.08 32.46 27.74 32.94 28.44C33.44 29.14 33.82 29.82 34.12 30.52C34.4 31.22 34.54 31.88 34.48 32.52C34.44 33.16 34.2 33.7 33.76 34.14C33.32 34.58 32.78 34.82 32.14 34.86C31.52 34.9 30.84 34.78 30.16 34.48C29.46 34.2 28.76 33.8 28.08 33.3C27.38 32.82 26.72 32.26 26.08 31.62C25.66 31.2 25.14 30.58 24.54 29.76C24.34 29.5 24.04 29.06 23.6 28.44C23.16 27.8 22.8 27.3 22.48 26.88C22.16 26.48 21.9 26.18 21.6 25.88C19.5241 26.967 17.1554 27.3631 14.8388 27.0105C12.5222 26.658 10.3786 25.5753 8.72001 23.92C4.44001 19.62 4.44001 12.64 8.72001 8.36001C9.74125 7.33755 10.954 6.52641 12.289 5.97299C13.6239 5.41956 15.0549 5.1347 16.5 5.1347C17.9451 5.1347 19.3761 5.41956 20.711 5.97299C22.046 6.52641 23.2588 7.33755 24.28 8.36001ZM21.46 21.08C22.7666 19.7639 23.4998 17.9846 23.4998 16.13C23.4998 14.2755 22.7666 12.4961 21.46 11.18C20.8107 10.5287 20.0392 10.012 19.1898 9.65942C18.3403 9.30685 17.4297 9.12536 16.51 9.12536C15.5903 9.12536 14.6797 9.30685 13.8303 9.65942C12.9808 10.012 12.2094 10.5287 11.56 11.18C10.9087 11.8294 10.392 12.6009 10.0394 13.4503C9.68684 14.2997 9.50535 15.2103 9.50535 16.13C9.50535 17.0497 9.68684 17.9603 10.0394 18.8098C10.392 19.6592 10.9087 20.4307 11.56 21.08C12.2094 21.7313 12.9808 22.248 13.8303 22.6006C14.6797 22.9532 15.5903 23.1347 16.51 23.1347C17.4297 23.1347 18.3403 22.9532 19.1898 22.6006C20.0392 22.248 20.8107 21.7313 21.46 21.08Z" fill="#719B30"/>
</svg>
