<svg width="41" height="32" viewBox="0 0 41 32" fill="none" xmlns="http://www.w3.org/2000/svg">
<path d="M17.8252 7.93705L11.5667 2.47038C10.8452 1.84042 9.52249 1.84322 8.68444 2.47878L3.53777 6.38035C2.00598 7.54088 1.56753 9.26417 2.45368 10.6459C7.74764 18.9403 16.5877 25.6391 27.5414 29.6568C29.3655 30.3273 31.641 29.9955 33.1728 28.835L38.3675 24.897C39.2093 24.2601 39.2111 23.2535 38.3712 22.7076L31.1193 17.9969C30.3608 17.5041 29.1823 17.5685 28.422 18.1452L25.8986 20.0575C25.7694 20.16 25.5994 20.2275 25.4146 20.2498C25.2297 20.272 25.0404 20.2478 24.8756 20.1807C20.7509 18.3834 17.3294 15.7909 14.9596 12.6674C14.8709 12.5424 14.8387 12.3989 14.8681 12.2588C14.8975 12.1187 14.9869 11.9898 15.1224 11.8918L17.6384 9.98653C18.4006 9.40697 18.4838 8.51102 17.8252 7.93565V7.93705Z" stroke="#719B30" stroke-width="3.33333" stroke-linecap="round" stroke-linejoin="round"/>
</svg>
