<svg width="50" height="32" viewBox="0 0 50 32" fill="none" xmlns="http://www.w3.org/2000/svg">
<path d="M28.75 0C30.8203 0 32.5 1.34312 32.5 3V6H36.4609C37.7891 6 38.9922 6.41875 40 7.16875L46.0391 12C46.9766 12.75 47.5 13.7688 47.5 14.8313V22C48.8828 22 50 22.8937 50 24C50 25.1063 48.8828 26 47.5 26H45C45 29.3125 41.6406 32 37.5 32C33.2891 32 30 29.3125 30 26H20C20 29.3125 16.6406 32 12.5 32C8.28906 32 5 29.3125 5 26H3.75C1.67891 26 0 24.6562 0 23V3C0 1.34312 1.67891 0 3.75 0H28.75ZM32.5 10V16H42.5V14.8313L36.4609 10H32.5ZM12.5 23C10.4297 23 8.75 24.3438 8.75 26C8.75 27.6562 10.4297 29 12.5 29C14.5703 29 16.25 27.6562 16.25 26C16.25 24.3438 14.5703 23 12.5 23ZM37.5 29C39.5703 29 41.25 27.6562 41.25 26C41.25 24.3438 39.5703 23 37.5 23C35.4297 23 33.75 24.3438 33.75 26C33.75 27.6562 35.4297 29 37.5 29Z" fill="#719B30"/>
</svg>
