<svg width="65" height="68" viewBox="0 0 65 68" fill="none" xmlns="http://www.w3.org/2000/svg">
<path d="M56.875 17H54.1667V14.1667C54.1667 13.4152 53.8813 12.6946 53.3734 12.1632C52.8655 11.6318 52.1766 11.3333 51.4583 11.3333C50.74 11.3333 50.0512 11.6318 49.5433 12.1632C49.0353 12.6946 48.75 13.4152 48.75 14.1667V17H46.0417C45.3234 17 44.6345 17.2985 44.1266 17.8299C43.6187 18.3612 43.3333 19.0819 43.3333 19.8333C43.3333 20.5848 43.6187 21.3055 44.1266 21.8368C44.6345 22.3682 45.3234 22.6667 46.0417 22.6667H48.75V25.5C48.75 26.2515 49.0353 26.9721 49.5433 27.5035C50.0512 28.0348 50.74 28.3333 51.4583 28.3333C52.1766 28.3333 52.8655 28.0348 53.3734 27.5035C53.8813 26.9721 54.1667 26.2515 54.1667 25.5V22.6667H56.875C57.5933 22.6667 58.2822 22.3682 58.7901 21.8368C59.298 21.3055 59.5833 20.5848 59.5833 19.8333C59.5833 19.0819 59.298 18.3612 58.7901 17.8299C58.2822 17.2985 57.5933 17 56.875 17ZM27.0833 31.1667C29.226 31.1667 31.3205 30.502 33.102 29.2567C34.8835 28.0113 36.2721 26.2413 37.092 24.1704C37.912 22.0995 38.1265 19.8208 37.7085 17.6223C37.2905 15.4239 36.2587 13.4045 34.7437 11.8195C33.2286 10.2345 31.2983 9.15507 29.1968 8.71777C27.0954 8.28047 24.9171 8.50491 22.9376 9.3627C20.9581 10.2205 19.2661 11.6731 18.0757 13.5369C16.8854 15.4006 16.25 17.5918 16.25 19.8333C16.25 22.8391 17.3914 25.7218 19.423 27.8472C21.4547 29.9726 24.2102 31.1667 27.0833 31.1667ZM43.3333 59.5C44.0516 59.5 44.7405 59.2015 45.2484 58.6701C45.7563 58.1388 46.0417 57.4181 46.0417 56.6667C46.0417 51.4065 44.0443 46.3619 40.4889 42.6424C36.9335 38.9229 32.1114 36.8333 27.0833 36.8333C22.0553 36.8333 17.2331 38.9229 13.6778 42.6424C10.1224 46.3619 8.125 51.4065 8.125 56.6667C8.125 57.4181 8.41034 58.1388 8.91825 58.6701C9.42616 59.2015 10.115 59.5 10.8333 59.5" fill="#719B30"/>
</svg>
